<svg id="svg" version="1.1" xmlns="http://www.w3.org/2000/svg" xmlns:xlink="http://www.w3.org/1999/xlink" width="400" height="400" viewBox="0, 0, 400,400"><g id="svgg"><path id="path0" d="M352.014 44.794 C 346.498 45.393,340.966 47.513,336.622 50.693 C 335.295 51.665,306.328 80.480,236.708 150.081 L 138.664 248.101 101.841 211.272 C 73.939 183.366,64.543 174.104,63.061 173.043 C 52.151 165.241,37.519 165.364,26.633 173.349 C 24.354 175.021,7.500 191.835,5.979 193.956 C 1.606 200.047,0.139 204.689,0.139 212.428 C 0.139 220.163,1.585 224.744,5.971 230.901 C 7.182 232.600,123.363 349.000,125.841 350.996 C 132.386 356.269,141.540 356.963,149.137 352.763 C 151.717 351.337,392.672 110.454,394.894 107.079 C 401.876 96.477,401.825 83.315,394.760 72.497 C 392.741 69.404,375.234 51.977,372.030 49.869 C 366.210 46.042,358.506 44.088,352.014 44.794 " stroke="none" fill="#141414" fill-rule="evenodd"></path><path id="path1" d="" stroke="none" fill="#181414" fill-rule="evenodd"></path><path id="path2" d="" stroke="none" fill="#181414" fill-rule="evenodd"></path><path id="path3" d="" stroke="none" fill="#181414" fill-rule="evenodd"></path><path id="path4" d="" stroke="none" fill="#181414" fill-rule="evenodd"></path></g></svg>